<svg width="41" height="41" viewBox="0 0 40 41" fill="none" xmlns="http://www.w3.org/2000/svg">
<path d="M35.714 0.924896H4.33101C3.19602 0.924896 2.10751 1.37577 1.30495 2.17833C0.502388 2.98089 0.0515137 4.0694 0.0515137 5.2044L0.0515137 36.5874C0.0515137 37.7224 0.502388 38.8109 1.30495 39.6135C2.10751 40.416 3.19602 40.8669 4.33101 40.8669H16.5677V27.2875H10.9509V20.8959H16.5677V16.0244C16.5677 10.4833 19.8665 7.4226 24.919 7.4226C27.3387 7.4226 29.8689 7.85412 29.8689 7.85412V13.2926H27.081C24.3341 13.2926 23.4773 14.9973 23.4773 16.7457V20.8959H29.6095L28.6288 27.2875H23.4773V40.8669H35.714C36.849 40.8669 37.9375 40.416 38.7401 39.6135C39.5426 38.8109 39.9935 37.7224 39.9935 36.5874V5.2044C39.9935 4.0694 39.5426 2.98089 38.7401 2.17833C37.9375 1.37577 36.849 0.924896 35.714 0.924896Z" fill="currentColor"/>
</svg>
