<svg width="22" height="21" viewBox="0 0 21 21" fill="none" xmlns="http://www.w3.org/2000/svg">
<path d="M18.528 0.751465C19.1174 0.751465 19.6826 0.985591 20.0994 1.40234C20.5161 1.81909 20.7502 2.38432 20.7502 2.97369V18.5292C20.7502 19.1186 20.5161 19.6838 20.0994 20.1006C19.6826 20.5173 19.1174 20.7515 18.528 20.7515H2.97247C2.3831 20.7515 1.81787 20.5173 1.40112 20.1006C0.98437 19.6838 0.750244 19.1186 0.750244 18.5292V2.97369C0.750244 2.38432 0.98437 1.81909 1.40112 1.40234C1.81787 0.985591 2.3831 0.751465 2.97247 0.751465H18.528ZM17.9725 17.9737V12.0848C17.9725 11.1241 17.5908 10.2028 16.9115 9.5235C16.2322 8.8442 15.3109 8.46258 14.3502 8.46258C13.4058 8.46258 12.3058 9.04035 11.7725 9.90702V8.67369H8.67247V17.9737H11.7725V12.4959C11.7725 11.6404 12.4614 10.9404 13.3169 10.9404C13.7295 10.9404 14.1251 11.1042 14.4169 11.396C14.7086 11.6877 14.8725 12.0834 14.8725 12.4959V17.9737H17.9725ZM5.06136 6.92924C5.55643 6.92924 6.03122 6.73258 6.38129 6.38251C6.73136 6.03244 6.92802 5.55765 6.92802 5.06258C6.92802 4.02924 6.09469 3.1848 5.06136 3.1848C4.56334 3.1848 4.08572 3.38263 3.73357 3.73479C3.38141 4.08694 3.18358 4.56456 3.18358 5.06258C3.18358 6.09591 4.02802 6.92924 5.06136 6.92924ZM6.6058 17.9737V8.67369H3.52802V17.9737H6.6058Z" fill="currentColor"/>
</svg>
