<svg width="131" height="131" viewBox="0 0 131 131" fill="none" xmlns="http://www.w3.org/2000/svg">
<circle cx="65.5" cy="65.5" r="65.5" fill="#F6F6EB"/>
<path d="M54.0375 103.173C53.0413 102.849 51.8602 102.393 51.4126 102.159C50.3415 101.601 49.0016 100.017 48.1017 98.2451C47.4814 97.0203 47.3591 96.4185 47.243 93.9826L47.1086 91.146L46.0467 92.121C42.5632 95.3186 38.0346 97.1132 34.5098 96.6943C30.4426 96.2113 27.6543 94.9423 25.1302 92.4272C21.387 88.6949 20.3022 83.8916 22.0715 78.8765C22.7896 76.8367 23.7506 75.2996 24.8736 74.3931L26.8934 72.7631C27.5137 72.2649 28.9698 71.5627 30.4228 71.063C32.7176 70.2739 32.9071 70.1566 33.0538 69.4253C33.257 68.4107 33.2325 66.2749 33.0003 64.977C32.7665 63.6623 31.7902 63.0697 29.5168 62.8579C27.2295 62.6447 26.4855 62.8534 26.4855 63.708C26.4855 64.0751 26.2303 64.8277 25.9202 65.3792C24.1952 68.4397 18.3649 67.9629 16.6888 64.6251C15.9096 63.0758 15.8256 62.3095 16.2656 60.8013C17.0524 58.1034 19.4603 56.5769 22.3893 56.9227C24.2273 57.1406 25.3335 57.9556 26.1707 59.7136L26.8659 61.173L27.6451 60.7648C28.0913 60.5332 29.3151 60.3108 30.4946 60.2499C32.3433 60.1539 32.6611 60.2072 33.4586 60.7495C33.9521 61.0847 34.7375 61.8586 35.2065 62.471C36.496 63.7354 36.0575 65.3731 36.0575 67.064C36.0575 70.4734 36.0682 70.5405 36.5969 70.3729C37.3868 70.123 40.2714 71.6205 41.2278 72.7768C42.5112 74.3307 43.127 76.2471 43.1499 78.7638C43.1743 81.4297 42.7893 82.6165 41.4203 84.0972C40.5907 84.996 40.0223 85.3281 38.5846 85.7638C36.4517 86.4098 33.4907 86.3503 32.4014 85.6374C31.1073 84.7919 30.7238 82.7841 31.6863 81.8898C32.192 81.4176 32.3143 81.4084 33.4327 81.7466C35.9323 82.5037 37.645 81.9751 38.4975 80.1836C38.9269 79.2802 38.9299 79.1629 38.5266 78.2824C37.9552 77.0347 37.428 76.4284 36.192 75.5905C35.0217 74.7984 34.1263 74.7268 32.2776 75.2752C30.3251 75.8488 28.6402 77.0948 27.5229 78.7912C26.6764 80.0968 26.5451 80.5203 26.3984 82.4352C26.1616 85.5003 26.6474 87.2187 28.2731 89.0772C29.8773 90.9114 30.6871 91.3654 33.1424 91.8011C38.5846 92.7684 40.5158 91.8742 45.6617 86.0015L48.7266 82.5037L48.7312 72.0425L48.7358 61.5813L47.8068 60.6932C45.9673 58.9306 45.8878 58.5756 45.8985 52.1393C45.9107 44.1018 46.3798 41.838 48.8549 37.8802C50.6609 34.9918 52.6929 33.0739 55.2506 31.846C61.77 28.7169 67.1343 28.199 72.9249 30.1398C75.8065 31.1056 78.8759 32.7555 80.2189 34.0595C81.976 35.7672 84.3564 39.4325 85.1081 41.5851C85.9301 43.9464 86.3762 47.7336 86.2708 53.2468C86.0936 55.445 86.4755 58.2161 85.0837 59.639C84.801 59.9284 84.7582 59.9284 84.6406 60.0198C84.2219 60.2026 86.6665 58.1064 83.4916 61.0938C83.4015 60.3291 83.403 65.1796 83.403 71.8643V82.5068L85.3999 84.8269C88.7857 88.7573 90.4235 90.2518 92.4785 91.2846C94.3211 92.2094 94.4342 92.2337 96.3287 92.0616C100.492 91.6853 102.37 90.9495 103.727 89.158C104.135 88.6202 104.61 88.0337 104.782 87.8555C105.337 87.2872 105.71 84.8787 105.615 82.4748C105.528 80.2902 105.461 80.0435 104.585 78.7303C103.409 76.9647 101.392 75.5723 99.2118 75.0208C97.5816 74.6095 97.5434 74.611 96.37 75.2143C95.1171 75.8571 93.6046 77.5801 93.328 78.6815C92.9705 80.1029 94.7428 82.1138 96.3562 82.1153C96.7214 82.1153 97.6228 81.9386 98.3593 81.7192C99.3509 81.4267 99.8337 81.3947 100.214 81.5973C101.398 82.2295 101.03 84.6274 99.6182 85.482C97.1187 86.9978 91.7895 85.9009 90.1669 83.5381C87.9851 80.3603 88.4602 75.0284 91.16 72.3975C92.2142 71.3692 94.3379 70.2221 95.2394 70.1946L95.9498 70.1733L95.9743 66.8675C95.9972 63.74 96.0354 63.5069 96.6878 62.5243C97.0667 61.9515 97.8627 61.1639 98.4555 60.7724C99.3784 60.1645 99.7832 60.0655 101.247 60.0914C102.352 60.1097 103.383 60.3062 104.15 60.6444L105.339 61.17L105.476 60.486C105.658 59.5872 106.636 58.178 107.546 57.5062C109.452 56.7079 111.971 56.6013 113.594 57.6586C114.905 58.5223 116 60.5865 116 62.1892C116 65.9428 111.377 68.5996 107.824 66.8843C106.544 66.2673 106.044 65.5955 105.624 63.9258L105.317 62.7102L103.091 62.8305C100.591 62.963 99.632 63.3104 99.2118 64.229C99.0544 64.5748 98.9276 66.0418 98.9307 67.4891L98.9368 70.1215L101.215 70.8467C103.624 71.6129 103.96 71.7927 106.274 73.5522C108.921 75.5646 110.536 78.8841 110.766 82.784C111.117 88.8472 106.507 94.6818 100.193 96.1656C95.2149 97.3356 90.5213 96.0453 86.3808 92.3708C85.623 91.696 84.9492 91.1445 84.8866 91.1445C84.8224 91.1445 84.7659 92.1195 84.7613 93.3108C84.746 96.5252 84.5183 97.4042 83.1677 99.4653C81.7957 101.56 80.7048 102.302 77.6185 103.243C75.3802 103.927 74.7339 103.921 71.9899 103.189C69.3986 102.497 68.0938 101.6 66.8272 99.6314L65.9823 98.3151L65.6003 99.051C64.3842 101.399 62.8578 102.564 60.0404 103.294C57.6188 103.921 56.2544 103.894 54.039 103.172L54.0375 103.173ZM58.3063 99.0144C59.388 98.4553 60.3536 97.0675 60.919 95.2577C61.6951 92.7684 62.0175 92.9513 56.8502 92.9513H52.2896L52.4179 94.0877C52.6471 96.126 54.1887 98.5863 55.5898 99.1561C56.4087 99.4897 57.492 99.4333 58.3063 99.0144ZM76.549 98.9931C77.9073 98.3517 79.1174 96.2875 79.6047 93.7891L79.7667 92.9513H70.4421L70.6041 93.9186C70.6927 94.4503 71.1343 95.6401 71.585 96.5617C72.8516 99.1485 74.5063 99.9589 76.549 98.9931ZM61.2765 89.2738C60.9877 87.5127 60.1306 85.8004 59.0504 84.8269C57.8052 83.7042 56.3048 83.5869 54.9175 84.5025C53.8572 85.2032 52.6074 87.5599 52.421 89.2098L52.2896 90.3706H61.4568L61.2765 89.2738ZM79.6872 89.9197C79.5712 89.4713 79.4682 89.0197 79.3786 88.5654C79.0914 87.1258 78.0494 85.2992 77.1067 84.5832C76.4512 84.085 75.9302 83.922 74.9891 83.922C73.8477 83.922 73.6445 84.0211 72.63 85.0798C71.7943 85.9482 71.3818 86.6824 70.9708 88.0352C70.6683 89.0254 70.4971 89.9547 70.5888 90.1025C70.6942 90.2731 72.4222 90.3706 75.2839 90.3706C79.4749 90.3706 79.8049 90.3371 79.6872 89.9197ZM57.1864 69.9555C58.6913 69.5777 60.2116 68.1579 60.6394 66.7304C61.8403 62.7208 57.6417 59.1789 53.7685 60.9339C49.6418 62.8031 50.0787 68.7017 54.4347 69.9479C55.6493 70.2952 55.8312 70.2952 57.1864 69.9555ZM78.7705 69.5899C79.811 69.0582 81.0287 67.5226 81.2212 66.5004C82.0081 62.3232 78.0478 59.1941 74.1869 60.9415C72.5399 61.688 71.6721 63.0133 71.5468 64.9724C71.4612 66.316 71.5468 66.7807 72.0449 67.6627C73.3084 69.9052 76.41 70.7949 78.7705 69.5899ZM23.0738 64.8262C23.555 64.5337 24.1066 63.8847 24.3342 63.3439C24.6856 62.506 24.6933 62.2486 24.3831 61.3589C23.691 59.3663 21.4542 58.5909 19.7369 59.7441C18.591 60.5149 18.1586 61.3772 18.3053 62.6005C18.5757 64.8719 21.0768 66.0388 23.0722 64.8246L23.0738 64.8262ZM113.248 64.3387C113.939 63.6531 114.058 63.3424 114.058 62.2516C114.058 61.1624 113.937 60.8531 113.248 60.1645C111.571 58.4918 108.776 59.0982 108.051 61.2949C107.024 64.4011 110.908 66.6741 113.248 64.3387Z" fill="#2B183F" stroke="#2B183F" stroke-width="0.899999" stroke-linecap="round"/>
</svg>
