<svg width="205" height="205" viewBox="0 0 204 205" fill="none" xmlns="http://www.w3.org/2000/svg">
<path d="M105.106 21.2C104.066 21.2 103.119 20.9867 102.266 20.56C101.426 20.12 100.759 19.4733 100.266 18.62C99.7858 17.7533 99.5458 16.68 99.5458 15.4C99.5591 14.1333 99.8058 13.0667 100.286 12.2C100.766 11.32 101.426 10.66 102.266 10.22C103.119 9.76667 104.092 9.54 105.186 9.54C106.639 9.54 107.812 9.92667 108.706 10.7C109.599 11.4733 110.152 12.4867 110.366 13.74H108.646C108.539 13.1 108.306 12.5867 107.946 12.2C107.599 11.8133 107.179 11.5333 106.686 11.36C106.206 11.1867 105.706 11.1 105.186 11.1C103.919 11.1 102.939 11.4667 102.246 12.2C101.552 12.92 101.206 13.9533 101.206 15.3C101.206 16.7133 101.546 17.7933 102.226 18.54C102.906 19.2733 103.872 19.64 105.126 19.64C105.992 19.64 106.766 19.4333 107.446 19.02C108.126 18.5933 108.546 17.9067 108.706 16.96H110.446C110.219 18.2133 109.659 19.2333 108.766 20.02C107.872 20.8067 106.652 21.2 105.106 21.2Z" fill="currentColor"/>
<path d="M117.746 22.7242C116.406 22.4945 115.473 21.9357 114.949 21.0478C114.425 20.1598 114.265 19.1179 114.47 17.922C114.664 16.7107 115.163 15.7748 115.966 15.1143C116.769 14.4537 117.835 14.2306 119.165 14.4449C120.453 14.6655 121.366 15.2144 121.906 16.0914C122.446 16.9685 122.609 18.0313 122.395 19.2797C122.262 20.0551 121.997 20.7334 121.6 21.3147C121.218 21.8851 120.7 22.3036 120.045 22.5702C119.406 22.826 118.64 22.8773 117.746 22.7242ZM117.986 21.3246C118.617 21.4327 119.12 21.3769 119.496 21.1572C119.885 20.9398 120.181 20.632 120.385 20.234C120.59 19.8228 120.732 19.3938 120.808 18.947C120.885 18.5002 120.893 18.0553 120.834 17.6122C120.777 17.156 120.601 16.7607 120.307 16.4261C120.028 16.0807 119.573 15.854 118.942 15.7459C118.298 15.6356 117.78 15.6957 117.389 15.9263C117 16.1437 116.703 16.458 116.497 16.8692C116.294 17.2672 116.154 17.6896 116.077 18.1364C116 18.5833 115.991 19.0348 116.048 19.491C116.107 19.934 116.284 20.3228 116.578 20.6573C116.873 20.9919 117.342 21.2143 117.986 21.3246Z" fill="currentColor"/>
<path d="M127.643 25.1598L130.36 17.4652L131.699 17.9379L131.337 19.8038L131.374 19.8172C131.405 19.7713 131.497 19.6696 131.652 19.5121C131.806 19.3546 132.022 19.2045 132.299 19.0617C132.58 18.9064 132.919 18.807 133.316 18.7634C133.713 18.7198 134.169 18.789 134.685 18.9709C135.364 19.2106 135.845 19.5291 136.129 19.9263C136.418 20.3109 136.577 20.7417 136.606 21.2187C136.64 21.6832 136.596 22.1484 136.474 22.6144C136.365 23.0847 136.241 23.5148 136.104 23.9046L134.772 27.6764L133.244 27.1371L134.583 23.3464C134.751 22.8686 134.852 22.4234 134.884 22.0107C134.921 21.5855 134.839 21.2171 134.638 20.9057C134.454 20.5862 134.104 20.3355 133.589 20.1535C133.061 19.9671 132.595 19.9441 132.192 20.0846C131.789 20.2251 131.454 20.4743 131.186 20.8323C130.918 21.1902 130.704 21.5955 130.544 22.0481L129.246 25.7257L127.643 25.1598Z" fill="currentColor"/>
<path d="M142.946 32.0986C142.445 31.8192 142.15 31.4864 142.06 31.1003C141.982 30.7207 142.089 30.2689 142.381 29.745L144.916 25.2043L143.815 24.5903L144.4 23.5424C144.761 23.7439 145.045 23.8642 145.252 23.9035C145.478 23.9376 145.691 23.8428 145.892 23.6192C146.111 23.3904 146.38 22.9907 146.699 22.4202L147.904 23.0928L146.88 24.9265L148.522 25.8427L147.937 26.8906L146.295 25.9744L143.537 30.9167L145.196 31.8427L144.553 32.9953L142.946 32.0986Z" fill="currentColor"/>
<path d="M153.873 40.0135C153.281 39.5363 152.913 39.0164 152.767 38.4536C152.63 37.8804 152.67 37.2787 152.887 36.6486C153.123 36.0166 153.496 35.384 154.006 34.7509C154.785 33.7857 155.618 33.156 156.507 32.8618C157.403 32.5572 158.287 32.7565 159.159 33.4596C159.626 33.8363 159.938 34.2249 160.095 34.6253C160.251 35.0258 160.324 35.3925 160.312 35.7257C160.311 36.0672 160.278 36.3409 160.215 36.5468L160.246 36.5719L161.301 35.2642L162.624 36.3315L157.489 42.6985L156.383 41.807L157.082 40.4948L157.051 40.4697C156.863 40.5752 156.602 40.6647 156.269 40.7383C155.944 40.8016 155.577 40.7887 155.17 40.6996C154.762 40.6105 154.33 40.3818 153.873 40.0135ZM155.278 39.3226C155.891 39.8164 156.475 39.9625 157.032 39.7606C157.599 39.5671 158.138 39.1539 158.649 38.5208C159.184 37.8566 159.477 37.2279 159.528 36.6346C159.588 36.0497 159.323 35.5187 158.731 35.0415C158.295 34.69 157.873 34.5123 157.465 34.5086C157.065 34.4945 156.679 34.6023 156.305 34.8319C155.942 35.07 155.601 35.3862 155.283 35.7805C154.789 36.3928 154.504 37.0112 154.429 37.6356C154.362 38.2496 154.645 38.8119 155.278 39.3226Z" fill="currentColor"/>
<path d="M164.092 50.2527C163.581 49.6726 163.242 49.0466 163.077 48.3749C162.912 47.7032 162.94 47.0295 163.162 46.3539C163.393 45.6883 163.839 45.0646 164.499 44.4828C165.158 43.9198 165.846 43.5617 166.565 43.4087C167.283 43.2556 167.97 43.2895 168.627 43.5105C169.303 43.7326 169.9 44.1388 170.421 44.729C170.932 45.3091 171.258 45.9013 171.4 46.5053C171.55 47.1194 171.551 47.7052 171.402 48.2626C171.263 48.8112 171.016 49.2869 170.66 49.6895L169.642 48.5341C169.962 48.1103 170.099 47.6514 170.055 47.1573C170.01 46.6633 169.785 46.1862 169.38 45.7261C168.851 45.1259 168.247 44.8232 167.567 44.8181C166.896 44.823 166.26 45.0899 165.66 45.6188C165.02 46.183 164.651 46.7927 164.553 47.4478C164.473 48.104 164.703 48.7373 165.24 49.3475C165.619 49.7776 166.06 50.0557 166.562 50.1819C167.064 50.3081 167.561 50.226 168.051 49.9358L169.07 51.0912C168.605 51.4114 168.078 51.6096 167.488 51.6857C166.916 51.763 166.335 51.6885 165.745 51.4623C165.154 51.2361 164.603 50.8329 164.092 50.2527Z" fill="currentColor"/>
<path d="M171.842 60.9359C171.541 60.4479 171.446 60.0134 171.555 59.6325C171.672 59.2628 171.986 58.9205 172.496 58.6056L176.922 55.8757L176.261 54.8033L177.282 54.1733C177.499 54.5251 177.688 54.7686 177.85 54.9038C178.03 55.0434 178.262 55.0646 178.547 54.9673C178.85 54.8744 179.28 54.6565 179.836 54.3135L180.56 55.488L178.773 56.5905L179.76 58.1906L178.738 58.8205L177.751 57.2204L172.934 60.1918L173.932 61.8089L172.808 62.5019L171.842 60.9359Z" fill="currentColor"/>
<path d="M177.762 73.8116C177.418 72.9583 177.322 72.1848 177.474 71.4912C177.638 70.7925 177.965 70.1938 178.454 69.6949C178.943 69.196 179.515 68.8145 180.171 68.5504C180.895 68.2441 181.612 68.1135 182.32 68.1588C183.033 68.2165 183.673 68.4476 184.238 68.8522C184.809 69.2693 185.248 69.8612 185.557 70.6279C185.821 71.2834 185.91 71.9306 185.822 72.5696C185.752 73.216 185.513 73.801 185.106 74.3244C184.711 74.8429 184.16 75.259 183.453 75.5727C183.416 75.5876 183.341 75.6175 183.23 75.6624C183.136 75.7146 183.052 75.7557 182.978 75.7856L180.668 70.0533C179.877 70.3722 179.336 70.8131 179.045 71.3758C178.771 71.946 178.774 72.5773 179.053 73.2699C179.263 73.7893 179.569 74.176 179.974 74.4301C180.395 74.6915 180.846 74.7758 181.326 74.6829L181.931 76.1856C181.095 76.3932 180.289 76.3011 179.513 75.9093C178.749 75.5126 178.166 74.8134 177.762 73.8116ZM181.451 69.8025L183.111 73.9208C183.242 73.8537 183.406 73.7443 183.604 73.5928C183.801 73.4413 183.975 73.2489 184.126 73.0158C184.294 72.7901 184.399 72.5175 184.443 72.198C184.487 71.8785 184.427 71.5147 184.262 71.1065C184.058 70.5995 183.785 70.2424 183.443 70.0353C183.118 69.8355 182.771 69.7237 182.402 69.6999C182.05 69.6834 181.733 69.7177 181.451 69.8025Z" fill="currentColor"/>
<path d="M180.88 83.4737L182.072 83.2154L188.776 87.1452L187.722 82.2781L188.973 82.0071L190.451 88.8289L189.258 89.0872L182.587 85.2118L183.687 90.2939L182.417 90.5691L180.88 83.4737Z" fill="currentColor"/>
<path d="M186.805 97.4726L188.004 97.4203L188.198 101.856L186.999 101.908L186.805 97.4726Z" fill="currentColor"/>
<path d="M182.556 110.86L190.651 111.886L190.473 113.295L188.572 113.336L188.567 113.376C188.619 113.396 188.738 113.464 188.924 113.582C189.111 113.7 189.303 113.879 189.501 114.119C189.713 114.361 189.882 114.671 190.008 115.05C190.135 115.429 190.164 115.89 190.095 116.432C190.005 117.146 189.795 117.684 189.467 118.046C189.153 118.409 188.765 118.656 188.305 118.786C187.858 118.917 187.394 118.973 186.913 118.952C186.43 118.945 185.984 118.915 185.574 118.863L181.606 118.36L181.809 116.753L185.797 117.258C186.3 117.322 186.756 117.326 187.167 117.27C187.59 117.217 187.933 117.058 188.194 116.796C188.468 116.548 188.639 116.153 188.707 115.611C188.778 115.055 188.702 114.596 188.479 114.231C188.256 113.867 187.942 113.592 187.535 113.406C187.129 113.22 186.687 113.097 186.211 113.037L182.342 112.547L182.556 110.86Z" fill="currentColor"/>
<path d="M178.688 127.671C179.084 126.37 179.756 125.515 180.702 125.106C181.649 124.698 182.703 124.671 183.864 125.024C185.041 125.369 185.907 125.981 186.461 126.861C187.015 127.741 187.103 128.827 186.723 130.119C186.342 131.369 185.683 132.206 184.745 132.631C183.807 133.056 182.732 133.084 181.52 132.715C180.768 132.486 180.128 132.138 179.601 131.671C179.084 131.22 178.734 130.654 178.551 129.971C178.378 129.305 178.423 128.538 178.688 127.671ZM180.046 128.084C179.859 128.697 179.851 129.203 180.022 129.603C180.189 130.017 180.457 130.349 180.826 130.601C181.208 130.857 181.616 131.051 182.05 131.183C182.484 131.315 182.924 131.38 183.371 131.376C183.831 131.377 184.245 131.252 184.614 131.002C184.992 130.769 185.274 130.346 185.46 129.734C185.651 129.109 185.656 128.588 185.476 128.171C185.31 127.758 185.035 127.423 184.653 127.167C184.284 126.916 183.882 126.724 183.449 126.591C183.015 126.459 182.568 126.393 182.109 126.392C181.662 126.395 181.254 126.522 180.885 126.772C180.516 127.022 180.236 127.459 180.046 128.084Z" fill="currentColor"/>
<path d="M173.529 139.72C173.84 139.101 174.202 138.663 174.614 138.407C175.031 138.17 175.476 138.057 175.947 138.07C176.412 138.095 176.874 138.185 177.333 138.341C177.786 138.509 178.215 138.694 178.62 138.898L182.373 140.783L181.637 142.248L177.884 140.363C177.455 140.148 177.035 139.989 176.623 139.887C176.212 139.785 175.831 139.802 175.479 139.938C175.132 140.093 174.828 140.432 174.564 140.957C174.313 141.457 174.232 141.901 174.321 142.289C174.409 142.677 174.605 143.014 174.909 143.301C175.207 143.599 175.549 143.853 175.936 144.063L179.752 146.001L178.989 147.521L171.679 143.849L172.317 142.58L173.961 143.093L173.979 143.057C173.848 142.932 173.691 142.711 173.506 142.395C173.334 142.084 173.221 141.699 173.169 141.24C173.128 140.787 173.248 140.28 173.529 139.72Z" fill="currentColor"/>
<path d="M165.903 151.585C166.267 151.091 166.718 150.703 167.257 150.422C167.788 150.15 168.33 150.011 168.882 150.004C169.436 150.015 169.923 150.175 170.342 150.484L169.416 151.739C169.395 151.724 169.31 151.67 169.163 151.578C169.015 151.485 168.824 151.419 168.589 151.378C168.354 151.338 168.093 151.377 167.806 151.497C167.511 151.627 167.213 151.897 166.913 152.305C166.581 152.755 166.392 153.18 166.347 153.577C166.303 153.975 166.425 154.281 166.715 154.494C166.983 154.692 167.268 154.744 167.568 154.651C167.869 154.558 168.181 154.382 168.504 154.123C168.838 153.872 169.182 153.596 169.537 153.295C169.884 153.004 170.246 152.749 170.623 152.529C171.002 152.329 171.391 152.218 171.788 152.196C172.188 152.192 172.599 152.354 173.02 152.681C173.6 153.108 173.867 153.678 173.823 154.391C173.781 155.122 173.483 155.863 172.929 156.614C172.573 157.097 172.153 157.499 171.667 157.821C171.193 158.15 170.681 158.328 170.132 158.354C169.575 158.39 169.01 158.19 168.439 157.752L169.352 156.512C169.709 156.792 170.046 156.908 170.363 156.86C170.683 156.83 170.97 156.711 171.224 156.5C171.489 156.298 171.705 156.084 171.871 155.859C172.187 155.43 172.356 155.032 172.377 154.667C172.408 154.309 172.295 154.035 172.038 153.846C171.759 153.64 171.469 153.584 171.168 153.677C170.879 153.778 170.567 153.954 170.233 154.205C169.91 154.463 169.575 154.738 169.228 155.029C168.873 155.331 168.507 155.591 168.13 155.81C167.753 156.03 167.361 156.146 166.953 156.16C166.537 156.185 166.115 156.039 165.685 155.723C165.052 155.256 164.779 154.649 164.866 153.902C164.964 153.162 165.309 152.39 165.903 151.585Z" fill="currentColor"/>
<path d="M148.828 172.87C149.258 172.578 149.616 172.488 149.902 172.601C150.188 172.713 150.432 172.918 150.634 173.216C150.821 173.492 150.914 173.783 150.913 174.09C150.912 174.397 150.696 174.696 150.266 174.988C149.835 175.28 149.483 175.367 149.208 175.247C148.923 175.134 148.686 174.94 148.499 174.665C148.297 174.367 148.196 174.064 148.197 173.757C148.188 173.458 148.398 173.162 148.828 172.87Z" fill="currentColor"/>
<path d="M115.907 188.022C115.531 186.591 115.515 185.403 115.86 184.458C116.208 183.525 116.844 182.772 117.768 182.198C118.68 181.628 119.806 181.167 121.148 180.814L124.088 180.042L126.949 190.932L124.009 191.704C122.668 192.057 121.447 192.157 120.345 192.005C119.234 191.87 118.297 191.475 117.532 190.821C116.768 190.168 116.226 189.235 115.907 188.022ZM122.838 181.817L121.078 182.28C120.162 182.521 119.39 182.834 118.761 183.22C118.135 183.619 117.713 184.164 117.495 184.855C117.277 185.547 117.317 186.46 117.615 187.595C117.971 188.949 118.647 189.846 119.646 190.287C120.647 190.741 121.838 190.786 123.218 190.424L124.978 189.961L122.838 181.817Z" fill="currentColor"/>
<path d="M106.898 182.779C107.815 182.699 108.583 182.832 109.202 183.18C109.822 183.54 110.3 184.027 110.635 184.64C110.97 185.254 111.168 185.912 111.229 186.616C111.311 187.399 111.227 188.122 110.977 188.786C110.714 189.452 110.307 189.996 109.755 190.419C109.19 190.843 108.496 191.091 107.672 191.163C106.968 191.225 106.323 191.121 105.737 190.851C105.14 190.595 104.65 190.197 104.268 189.654C103.887 189.126 103.649 188.477 103.555 187.709C103.552 187.669 103.545 187.59 103.534 187.47C103.512 187.365 103.497 187.273 103.49 187.193L109.647 186.654C109.572 185.804 109.308 185.158 108.855 184.716C108.389 184.288 107.784 184.107 107.04 184.172C106.482 184.221 106.023 184.401 105.662 184.714C105.289 185.041 105.077 185.448 105.026 185.934L103.412 186.075C103.458 185.215 103.781 184.471 104.381 183.842C104.983 183.228 105.822 182.873 106.898 182.779ZM109.658 187.476L105.235 187.863C105.261 188.008 105.318 188.197 105.405 188.431C105.493 188.664 105.626 188.886 105.805 189.098C105.972 189.325 106.202 189.505 106.495 189.64C106.788 189.775 107.153 189.824 107.592 189.785C108.136 189.738 108.557 189.58 108.855 189.313C109.141 189.061 109.349 188.762 109.479 188.416C109.598 188.084 109.657 187.771 109.658 187.476Z" fill="currentColor"/>
<path d="M97.8783 183.039L97.2049 191.191L95.7698 191.073L95.8863 189.176L95.8465 189.173C95.8144 189.237 95.7503 189.365 95.6541 189.558C95.5446 189.75 95.3875 189.951 95.1828 190.161C94.9638 190.384 94.6882 190.562 94.3561 190.695C94.0229 190.841 93.6238 190.895 93.1587 190.857C92.4544 190.799 91.9521 190.563 91.6517 190.151C91.337 189.75 91.1274 189.291 91.0229 188.774L90.9831 188.771C90.9643 188.836 90.8935 188.964 90.7707 189.155C90.648 189.345 90.4776 189.545 90.2596 189.755C90.0272 189.976 89.7384 190.153 89.393 190.285C89.0465 190.43 88.6341 190.483 88.1557 190.444C87.6375 190.401 87.2277 190.26 86.9264 190.021C86.6117 189.781 86.3823 189.481 86.2381 189.121C86.0795 188.774 85.9829 188.405 85.9483 188.014C85.8993 187.635 85.8824 187.272 85.8977 186.926C85.9129 186.579 85.9299 186.293 85.9485 186.067L86.2778 182.081L87.693 182.198L87.3621 186.204C87.3456 186.403 87.3386 186.65 87.341 186.945C87.3291 187.251 87.3642 187.555 87.4463 187.857C87.5141 188.17 87.6599 188.429 87.8837 188.635C88.0931 188.853 88.4105 188.98 88.8357 189.015C89.3406 189.057 89.7436 188.956 90.0446 188.713C90.3456 188.471 90.574 188.135 90.7298 187.706C90.8845 187.291 90.9811 186.851 91.0195 186.386L91.3406 182.499L92.7558 182.616L92.4248 186.622C92.4084 186.822 92.4013 187.068 92.4038 187.363C92.3918 187.67 92.4269 187.974 92.5091 188.275C92.5768 188.588 92.7226 188.848 92.9465 189.053C93.1559 189.271 93.4732 189.398 93.8984 189.433C94.4034 189.475 94.8063 189.374 95.1074 189.132C95.4084 188.889 95.6368 188.553 95.7926 188.125C95.9473 187.709 96.0439 187.269 96.0823 186.804L96.4034 182.917L97.8783 183.039Z" fill="currentColor"/>
<path d="M80.398 180.003C81.134 180.193 81.6847 180.514 82.0501 180.966C82.4123 181.431 82.6249 181.995 82.6881 182.659C82.7351 183.332 82.6571 184.062 82.4542 184.849C82.1449 186.05 81.6468 186.968 80.9599 187.604C80.2697 188.252 79.3823 188.437 78.2977 188.157C77.7167 188.008 77.272 187.783 76.9637 187.483C76.6554 187.183 76.4376 186.88 76.3105 186.571C76.1704 186.26 76.0866 185.997 76.059 185.784L76.0203 185.774L75.6012 187.401L73.9549 186.977L75.9954 179.055L77.3705 179.409L77.2774 180.893L77.3162 180.903C77.4435 180.729 77.6438 180.54 77.9169 180.335C78.1867 180.143 78.5256 180.003 78.9337 179.915C79.3418 179.828 79.8299 179.857 80.398 180.003ZM79.4047 181.214C78.6429 181.018 78.0503 181.127 77.6269 181.541C77.1907 181.952 76.8711 182.551 76.6682 183.338C76.4554 184.165 76.4488 184.858 76.6485 185.419C76.8354 185.977 77.2968 186.35 78.0328 186.54C78.5751 186.68 79.0327 186.667 79.4058 186.501C79.7756 186.349 80.083 186.091 80.3281 185.727C80.5604 185.36 80.7397 184.931 80.866 184.44C81.0623 183.679 81.0655 182.998 80.8757 182.398C80.6827 181.812 80.1923 181.417 79.4047 181.214Z" fill="currentColor"/>
<path d="M70.0613 176.567L66.7207 184.012L65.4251 183.43L65.9393 181.601L65.9028 181.584C65.8688 181.627 65.7683 181.721 65.6013 181.865C65.4343 182.01 65.207 182.142 64.9196 182.261C64.6267 182.393 64.2806 182.464 63.8812 182.475C63.4817 182.485 63.0327 182.379 62.5339 182.155C61.877 181.86 61.4234 181.503 61.1731 181.084C60.9173 180.677 60.7943 180.235 60.8042 179.757C60.8085 179.291 60.8907 178.831 61.0507 178.377C61.1986 177.917 61.3571 177.498 61.5263 177.121L63.1639 173.472L64.6419 174.135L62.9962 177.803C62.7887 178.265 62.6518 178.701 62.5854 179.109C62.5135 179.53 62.5649 179.904 62.7398 180.231C62.897 180.564 63.225 180.843 63.7237 181.067C64.2346 181.296 64.6967 181.357 65.11 181.25C65.5233 181.144 65.8781 180.923 66.1744 180.588C66.4708 180.253 66.7172 179.867 66.9137 179.429L68.5103 175.871L70.0613 176.567Z" fill="currentColor"/>
<path d="M55.2574 168.067C56.2535 168.736 56.7685 169.548 56.8021 170.502C56.8284 171.468 56.5032 172.454 55.8267 173.461C55.1278 174.501 54.3304 175.186 53.4343 175.516C52.5197 175.85 51.5699 175.685 50.5848 175.024C50.1421 174.726 49.8197 174.405 49.6175 174.061C49.4153 173.716 49.2925 173.385 49.2493 173.067C49.1949 172.741 49.1848 172.469 49.2188 172.251C49.2418 172.026 49.2626 171.887 49.2813 171.835L49.2481 171.813L46.4435 175.952L45.0323 175.004L51.3107 165.657L52.5061 166.46L51.8075 167.967L51.8407 167.989C51.8926 167.959 52.0241 167.895 52.2352 167.796C52.4278 167.701 52.6814 167.622 52.996 167.56C53.2995 167.491 53.6489 167.485 54.0444 167.542C54.4325 167.61 54.8368 167.785 55.2574 168.067ZM54.056 168.995C53.4141 168.564 52.784 168.438 52.1658 168.617C51.5402 168.807 50.9969 169.245 50.536 169.931C50.0899 170.595 49.8953 171.244 49.9523 171.876C49.9908 172.513 50.3255 173.043 50.9564 173.466C51.4434 173.793 51.9106 173.947 52.3582 173.926C52.7872 173.909 53.1833 173.774 53.5466 173.52C53.8989 173.258 54.2013 172.939 54.4541 172.563C54.7143 172.176 54.908 171.768 55.0353 171.339C55.144 170.914 55.1343 170.498 55.0063 170.091C54.8598 169.688 54.543 169.322 54.056 168.995Z" fill="currentColor"/>
<path d="M44.6641 159.12C45.3302 159.755 45.7377 160.419 45.8865 161.113C46.0262 161.817 45.9767 162.498 45.738 163.154C45.4993 163.811 45.1362 164.395 44.6488 164.906C44.1158 165.485 43.5176 165.9 42.8541 166.152C42.1809 166.395 41.5032 166.449 40.821 166.315C40.129 166.171 39.4838 165.814 38.8853 165.244C38.3736 164.757 38.0254 164.204 37.8407 163.586C37.6371 162.968 37.6123 162.337 37.7665 161.692C37.9114 161.057 38.2409 160.45 38.755 159.872C38.7826 159.843 38.8378 159.785 38.9205 159.698C38.9845 159.611 39.044 159.539 39.0992 159.481L43.5737 163.744C44.1623 163.126 44.4725 162.501 44.5044 161.868C44.5173 161.236 44.2535 160.663 43.7129 160.148C43.3074 159.761 42.8681 159.536 42.3951 159.472C41.9031 159.409 41.4578 159.518 41.0591 159.802L39.8862 158.684C40.5617 158.149 41.3337 157.899 42.2022 157.935C43.0615 157.98 43.8821 158.375 44.6641 159.12ZM42.9647 164.296L39.75 161.234C39.6585 161.349 39.5541 161.517 39.4368 161.737C39.3195 161.956 39.2406 162.203 39.2001 162.478C39.1408 162.753 39.1573 163.045 39.2497 163.354C39.342 163.663 39.5475 163.969 39.8661 164.272C40.2619 164.65 40.6584 164.862 41.0556 164.909C41.434 164.956 41.7961 164.914 42.1419 164.783C42.4688 164.653 42.7431 164.49 42.9647 164.296Z" fill="currentColor"/>
<path d="M37.8277 151.614L36.8492 152.343L29.12 151.539L32.0938 155.534L31.0671 156.298L26.8989 150.699L27.8775 149.971L35.5548 150.738L32.4496 146.567L33.4924 145.791L37.8277 151.614Z" fill="currentColor"/>
<path d="M24.2897 124.509C24.495 125.171 24.5378 125.737 24.4182 126.207C24.2819 126.668 24.0396 127.057 23.6913 127.375C23.339 127.679 22.9435 127.935 22.5048 128.14C22.0621 128.333 21.6243 128.497 21.1913 128.631L17.1796 129.875L16.694 128.308L20.7057 127.065C21.1642 126.923 21.577 126.746 21.9442 126.534C22.3113 126.323 22.5744 126.046 22.7335 125.703C22.8759 125.352 22.8603 124.896 22.6866 124.336C22.5207 123.801 22.2715 123.425 21.9387 123.207C21.6059 122.989 21.2307 122.882 20.8131 122.886C20.3916 122.877 19.9687 122.931 19.5445 123.049L15.4505 124.297L14.9471 122.673L22.7604 120.251L23.1808 121.607L21.6399 122.378L21.6518 122.416C21.8331 122.416 22.0999 122.466 22.452 122.566C22.7914 122.67 23.1393 122.87 23.4958 123.164C23.8395 123.462 24.1041 123.911 24.2897 124.509Z" fill="currentColor"/>
<path d="M21.7982 114.009L13.708 115.074L13.5227 113.666L15.35 113.143L15.3448 113.103C15.2902 113.097 15.1577 113.061 14.9472 112.994C14.7367 112.928 14.5052 112.804 14.2526 112.622C13.9868 112.442 13.7445 112.184 13.5257 111.85C13.3068 111.516 13.1617 111.078 13.0904 110.536C12.9964 109.822 13.0621 109.248 13.2875 108.815C13.4997 108.384 13.8117 108.047 14.2236 107.804C14.6222 107.564 15.0569 107.392 15.5276 107.29C15.9965 107.174 16.4359 107.09 16.8457 107.036L20.8114 106.514L21.0229 108.12L17.0373 108.644C16.5349 108.711 16.0925 108.823 15.7098 108.981C15.3139 109.14 15.0228 109.38 14.8363 109.701C14.6349 110.01 14.5699 110.435 14.6413 110.977C14.7144 111.532 14.9049 111.958 15.2127 112.253C15.5206 112.549 15.8948 112.735 16.3352 112.812C16.7756 112.888 17.2338 112.895 17.7097 112.832L21.5763 112.323L21.7982 114.009Z" fill="currentColor"/>
<path d="M23.2815 83.3901C23.0332 84.5641 22.4728 85.345 21.6003 85.7328C20.7147 86.1179 19.6784 86.1849 18.4914 85.9338C17.2652 85.6744 16.3317 85.1907 15.691 84.4828C15.0401 83.7591 14.8374 82.8167 15.083 81.6557C15.1934 81.1339 15.3706 80.7149 15.6147 80.3986C15.8588 80.0822 16.1203 79.8445 16.3992 79.6855C16.681 79.5134 16.9293 79.4024 17.1443 79.3525C17.362 79.2895 17.4984 79.257 17.5533 79.255L17.5616 79.2159L12.674 78.1615L13.0258 76.4983L24.042 78.8287L23.744 80.2375L22.0857 80.1525L22.0774 80.1916C22.1241 80.2288 22.2328 80.3267 22.4037 80.4855C22.5642 80.6285 22.7319 80.8343 22.9068 81.103C23.0844 81.3586 23.2207 81.6805 23.3158 82.0686C23.3978 82.4539 23.3864 82.8944 23.2815 83.3901ZM21.9721 82.6224C22.1321 81.8659 22.0136 81.2343 21.6165 80.7278C21.2063 80.2186 20.5969 79.8784 19.7881 79.7073C19.0054 79.5418 18.3314 79.6036 17.7659 79.8928C17.1902 80.1663 16.8237 80.6748 16.6664 81.4183C16.545 81.9923 16.5775 82.4829 16.7638 82.8903C16.9399 83.2819 17.2136 83.5988 17.5849 83.8408C17.9589 84.0699 18.3677 84.2313 18.8112 84.3251C19.2678 84.4217 19.7186 84.4489 20.1636 84.4068C20.5983 84.3489 20.9807 84.1844 21.3105 83.9135C21.6301 83.6268 21.8506 83.1964 21.9721 82.6224Z" fill="currentColor"/>
<path d="M27.622 70.2203C27.2823 71.0753 26.8183 71.7015 26.23 72.0991C25.6292 72.4917 24.9798 72.7 24.2816 72.7239C23.5835 72.7478 22.906 72.6293 22.2493 72.3684C21.5133 72.0904 20.9045 71.6907 20.4229 71.1694C19.9463 70.6357 19.6428 70.0273 19.5124 69.3443C19.387 68.6488 19.4769 67.917 19.7821 67.1487C20.043 66.492 20.4255 65.9625 20.9297 65.5602C21.4264 65.1406 22.0027 64.8817 22.6586 64.7836C23.3021 64.6806 23.9881 64.7595 24.7166 65.0202C24.7538 65.035 24.8281 65.0645 24.9397 65.1088C25.0437 65.1358 25.1329 65.1641 25.2073 65.1936L22.9256 70.937C23.7186 71.252 24.4145 71.3061 25.0132 71.0992C25.6044 70.875 26.0378 70.4159 26.3135 69.722C26.5203 69.2015 26.5649 68.71 26.4475 68.2472C26.3225 67.7672 26.0543 67.3952 25.6426 67.1312L26.2407 65.6257C26.9895 66.0523 27.5097 66.675 27.8013 67.4938C28.0805 68.3078 28.0207 69.2166 27.622 70.2203ZM22.1857 70.5785L23.8249 66.4522C23.6837 66.4104 23.4893 66.3762 23.2416 66.3495C22.9939 66.3229 22.7353 66.3421 22.4655 66.4071C22.1883 66.4548 21.9237 66.5792 21.6716 66.7803C21.4196 66.9815 21.2123 67.2865 21.0498 67.6954C20.848 68.2035 20.7995 68.6505 20.9044 69.0365C21.0019 69.4052 21.1759 69.7254 21.4266 69.9972C21.6699 70.2516 21.9229 70.4454 22.1857 70.5785Z" fill="currentColor"/>
<path d="M28.0672 51.8629L28.9214 50.4629L29.1775 50.6191L34.3729 57.2331L33.1542 59.2306L24.9028 57.6636L24.6296 57.497L25.4734 56.114L32.5907 57.5046L32.6116 57.4704L28.0672 51.8629Z" fill="currentColor"/>
<path d="M34.7132 42.0464C34.4865 42.3264 34.2634 42.4502 34.0439 42.4179C33.8243 42.3856 33.6091 42.2774 33.3981 42.0933C33.2173 41.9355 33.096 41.75 33.0343 41.5368C32.9725 41.3237 33.06 41.0815 33.2967 40.8103C33.5247 40.5491 33.7484 40.4346 33.968 40.467C34.1963 40.4892 34.4008 40.5793 34.5817 40.7371C34.7926 40.9212 34.9246 41.1248 34.9776 41.348C35.0293 41.5524 34.9411 41.7852 34.7132 42.0464ZM41.0021 48.6496L34.839 43.2711L35.9305 42.0204L42.0936 47.3989L41.0021 48.6496Z" fill="currentColor"/>
<path d="M52.4214 38.135C51.9459 38.5224 51.412 38.7853 50.8198 38.9238C50.2379 39.0539 49.6787 39.0536 49.1424 38.923C48.608 38.7737 48.1766 38.4974 47.8481 38.0942L49.0576 37.109C49.0745 37.1296 49.1428 37.203 49.2626 37.3289C49.3824 37.4549 49.551 37.5669 49.7685 37.6649C49.9859 37.763 50.2485 37.7898 50.5563 37.7454C50.8745 37.6926 51.23 37.5062 51.6228 37.1862C52.057 36.8326 52.3453 36.4687 52.4877 36.0947C52.6302 35.7207 52.5877 35.3941 52.3604 35.115C52.1498 34.8566 51.8874 34.735 51.5731 34.7503C51.2588 34.7655 50.9129 34.8581 50.5354 35.0281C50.1495 35.1877 49.7471 35.3693 49.3283 35.5729C48.9198 35.7681 48.5057 35.9248 48.0861 36.043C47.6684 36.1425 47.2646 36.1534 46.8745 36.0756C46.4863 35.9791 46.1289 35.7199 45.8024 35.298C45.3477 34.7397 45.2308 34.1213 45.4518 33.4425C45.6747 32.745 46.1479 32.1016 46.8716 31.5121C47.3368 31.1331 47.8444 30.8486 48.3946 30.6584C48.9363 30.4578 49.4763 30.4135 50.0146 30.5253C50.5631 30.6288 51.0596 30.9638 51.504 31.5305L50.3101 32.5031C50.0341 32.1432 49.7366 31.9469 49.4177 31.9144C49.1008 31.863 48.793 31.9074 48.4943 32.0475C48.1873 32.1772 47.9252 32.3305 47.7081 32.5074C47.2946 32.8442 47.0322 33.187 46.9207 33.5357C46.8008 33.8741 46.842 34.1674 47.0441 34.4155C47.263 34.6843 47.5296 34.811 47.8439 34.7958C48.1498 34.7701 48.4957 34.6775 48.8816 34.5179C49.2591 34.348 49.6521 34.1654 50.0606 33.9703C50.4795 33.7666 50.8987 33.6057 51.3183 33.4875C51.7379 33.3692 52.147 33.3541 52.5455 33.4422C52.9543 33.5219 53.3272 33.7685 53.664 34.182C54.1609 34.7919 54.2739 35.4479 54.0032 36.15C53.724 36.8418 53.1968 37.5034 52.4214 38.135Z" fill="currentColor"/>
<path d="M74.2659 21.7816C73.7764 21.957 73.4073 21.9548 73.1586 21.7748C72.91 21.5948 72.7249 21.3354 72.6034 20.9965C72.4909 20.6827 72.4735 20.3774 72.5512 20.0804C72.6289 19.7834 72.9125 19.5472 73.402 19.3717C73.8915 19.1962 74.2543 19.2007 74.4904 19.3852C74.739 19.5652 74.9196 19.8121 75.0321 20.1259C75.1536 20.4647 75.1755 20.7827 75.0978 21.0796C75.0327 21.3721 74.7554 21.6061 74.2659 21.7816Z" fill="currentColor"/>
</svg>
