<svg width="100" height="80" viewBox="0 0 100 80" fill="none" xmlns="http://www.w3.org/2000/svg">
<path d="M39.821 70.4041C38.9734 70.1272 37.9685 69.7385 37.5876 69.5383C36.6763 69.0625 35.5362 67.7105 34.7705 66.1986C34.2427 65.1534 34.1387 64.6399 34.0399 62.5612L33.9255 60.1406L33.022 60.9726C30.058 63.7013 26.2048 65.2327 23.2057 64.8752C19.7451 64.4631 17.3726 63.3802 15.225 61.2339C12.04 58.0489 11.117 53.95 12.6224 49.6704C13.2334 47.9297 14.0511 46.618 15.0066 45.8445L16.7252 44.4535C17.253 44.0284 18.4919 43.4291 19.7282 43.0027C21.6808 42.3293 21.842 42.2292 21.9668 41.6052C22.1397 40.7394 22.1189 38.9168 21.9213 37.8092C21.7224 36.6873 20.8917 36.1816 18.9573 36.0009C17.0112 35.8189 16.3781 35.997 16.3781 36.7263C16.3781 37.0396 16.161 37.6818 15.8971 38.1524C14.4294 40.7641 9.4686 40.3572 8.0425 37.5089C7.3795 36.1868 7.308 35.5329 7.6824 34.2459C8.3519 31.9436 10.4007 30.641 12.8928 30.9361C14.4567 31.122 15.3979 31.8175 16.1103 33.3177L16.7018 34.5631L17.3648 34.2147C17.7444 34.0171 18.7857 33.8273 19.7893 33.7753C21.3623 33.6934 21.6327 33.7389 22.3113 34.2017C22.7312 34.4877 23.3994 35.1481 23.7985 35.6707C24.8957 36.7497 24.5226 38.1472 24.5226 39.5902C24.5226 42.4996 24.5317 42.5568 24.9815 42.4138C25.6536 42.2006 28.108 43.4785 28.9218 44.4652C30.0138 45.7912 30.5377 47.4266 30.5572 49.5742C30.578 51.8492 30.2504 52.8619 29.0856 54.1255C28.3797 54.8925 27.8961 55.1759 26.6728 55.5477C24.858 56.0989 22.3386 56.0482 21.4117 55.4398C20.3106 54.7183 19.9843 53.0049 20.8033 52.2418C21.2336 51.8388 21.3376 51.831 22.2892 52.1196C24.416 52.7657 25.8733 52.3146 26.5987 50.7858C26.964 50.0149 26.9666 49.9148 26.6234 49.1634C26.1372 48.0987 25.6887 47.5813 24.637 46.8663C23.6412 46.1903 22.8794 46.1292 21.3064 46.5972C19.6451 47.0867 18.2115 48.1499 17.2608 49.5976C16.5406 50.7117 16.4288 51.0731 16.304 52.7072C16.1025 55.3228 16.5159 56.7892 17.8991 58.3752C19.2641 59.9404 19.9531 60.3278 22.0422 60.6996C26.6728 61.5251 28.316 60.762 32.6944 55.7505L35.3022 52.7657L35.3061 43.8386L35.31 34.9115L34.5196 34.1536C32.9544 32.6495 32.8868 32.3466 32.8959 26.8541C32.9063 19.9953 33.3054 18.0635 35.4114 14.6861C36.948 12.2213 38.677 10.5846 40.8532 9.53679C46.4003 6.86659 50.9646 6.42459 55.8916 8.08079C58.3434 8.90499 60.9551 10.3129 62.0978 11.4257C63.5928 12.883 65.6182 16.0108 66.2578 17.8477C66.9572 19.8627 67.3368 23.0945 67.2471 27.7992C67.0963 29.6751 67.4213 32.0398 66.237 33.254C65.9965 33.501 65.9601 33.501 65.86 33.579C65.5038 33.735 67.5838 31.9462 64.8824 34.4955C64.8057 33.8429 64.807 37.9821 64.807 43.6865V52.7683L66.5061 54.7482C69.3869 58.1022 70.7805 59.3775 72.529 60.2589C74.0968 61.048 74.193 61.0688 75.805 60.9219C79.3475 60.6008 80.9452 59.9729 82.0996 58.4441C82.4467 57.9852 82.851 57.4847 82.9979 57.3326C83.4698 56.8477 83.787 54.7924 83.7064 52.741C83.6323 50.8768 83.5751 50.6662 82.8302 49.5456C81.8292 48.0389 80.1132 46.8507 78.2581 46.3801C76.871 46.0291 76.8385 46.0304 75.8401 46.5452C74.7741 47.0938 73.4871 48.5641 73.2518 49.504C72.9476 50.7169 74.4556 52.4329 75.8284 52.4342C76.1391 52.4342 76.9061 52.2834 77.5327 52.0962C78.3764 51.8466 78.7872 51.8193 79.1109 51.9922C80.1184 52.5317 79.8051 54.5779 78.6039 55.3072C76.4771 56.6007 71.9427 55.6647 70.5621 53.6484C68.7057 50.9366 69.11 46.3866 71.4071 44.1415C72.3041 43.264 74.1111 42.2851 74.8781 42.2617L75.4826 42.2435L75.5034 39.4225C75.5229 36.7536 75.5554 36.5547 76.1105 35.7162C76.4329 35.2274 77.1102 34.5553 77.6146 34.2212C78.3998 33.7025 78.7443 33.618 79.9897 33.6401C80.9296 33.6557 81.8071 33.8234 82.4597 34.112L83.4711 34.5605L83.5881 33.9768C83.7428 33.2098 84.5748 32.0073 85.3496 31.434C86.9707 30.7528 89.1144 30.6618 90.495 31.564C91.6104 32.3011 92.5425 34.0626 92.5425 35.4302C92.5425 38.6334 88.6087 40.9006 85.5862 39.4368C84.4968 38.9103 84.0717 38.337 83.7142 36.9122L83.4529 35.8748L81.5588 35.9775C79.432 36.0906 78.6156 36.387 78.2581 37.1709C78.1242 37.466 78.0163 38.7179 78.0189 39.9529L78.0241 42.1993L79.9624 42.8181C82.0125 43.472 82.2985 43.6254 84.2667 45.1269C86.5196 46.8442 87.8937 49.6769 88.0887 53.0049C88.3877 58.1789 84.4656 63.1579 79.0927 64.4241C74.8573 65.4225 70.8637 64.3214 67.3407 61.1858C66.6959 60.6099 66.1226 60.1393 66.0693 60.1393C66.0147 60.1393 65.9666 60.9713 65.9627 61.9879C65.9497 64.7309 65.756 65.481 64.6068 67.2399C63.4394 69.0274 62.5112 69.6605 59.8852 70.4639C57.9807 71.0476 57.4308 71.0424 55.096 70.4171C52.8912 69.8269 51.781 69.0612 50.7033 67.3816L49.9844 66.2584L49.6594 66.8863C48.6246 68.8896 47.3259 69.8841 44.9287 70.5068C42.8682 71.0424 41.7073 71.019 39.8223 70.4028L39.821 70.4041ZM43.4532 66.8551C44.3736 66.378 45.1952 65.1937 45.6762 63.6493C46.3366 61.5251 46.6109 61.6811 42.2143 61.6811H38.3338L38.443 62.6509C38.638 64.3903 39.9497 66.4898 41.1418 66.976C41.8386 67.2607 42.7603 67.2126 43.4532 66.8551ZM58.9752 66.8369C60.1309 66.2896 61.1605 64.5281 61.5752 62.3961L61.713 61.6811H53.7791L53.9169 62.5066C53.9923 62.9603 54.368 63.9756 54.7515 64.7621C55.8292 66.9695 57.2371 67.6611 58.9752 66.8369ZM45.9804 58.5429C45.7347 57.0401 45.0054 55.5789 44.0863 54.7482C43.0268 53.7901 41.7502 53.69 40.5698 54.4713C39.6676 55.0693 38.6042 57.0804 38.4456 58.4883L38.3338 59.4789H46.1338L45.9804 58.5429ZM61.6454 59.0941C61.5466 58.7115 61.4591 58.3261 61.3828 57.9384C61.1384 56.7099 60.2518 55.1512 59.4497 54.5402C58.892 54.1151 58.4487 53.976 57.6479 53.976C56.6768 53.976 56.5039 54.0605 55.6407 54.964C54.9296 55.705 54.5786 56.3316 54.2289 57.486C53.9715 58.331 53.8259 59.124 53.9039 59.2501C53.9936 59.3957 55.4639 59.4789 57.8988 59.4789C61.4647 59.4789 61.7455 59.4503 61.6454 59.0941ZM42.5003 42.0576C43.7808 41.7352 45.0743 40.5236 45.4383 39.3055C46.4601 35.8839 42.8877 32.8614 39.5922 34.359C36.0809 35.9541 36.4527 40.9877 40.159 42.0511C41.1925 42.3475 41.3472 42.3475 42.5003 42.0576ZM60.8654 41.7456C61.7507 41.2919 62.7868 39.9815 62.9506 39.1092C63.6201 35.5446 60.2505 32.8744 56.9654 34.3655C55.564 35.0025 54.8256 36.1335 54.719 37.8053C54.6462 38.9519 54.719 39.3484 55.1428 40.1011C56.2179 42.0147 58.8569 42.7739 60.8654 41.7456ZM13.4752 37.6805C13.8847 37.4309 14.354 36.8771 14.5477 36.4156C14.8467 35.7006 14.8532 35.4809 14.5893 34.7217C14.0004 33.0213 12.0972 32.3596 10.636 33.3437C9.66099 34.0015 9.2931 34.7373 9.4179 35.7812C9.648 37.7195 11.7761 38.7153 13.4739 37.6792L13.4752 37.6805ZM90.2012 37.2645C90.7888 36.6795 90.8902 36.4143 90.8902 35.4835C90.8902 34.554 90.7875 34.2901 90.2012 33.7025C88.7738 32.2751 86.3961 32.7925 85.7786 34.6671C84.905 37.3178 88.2096 39.2574 90.2012 37.2645Z" fill="#2B183F" stroke="#2B183F" stroke-width="0.9" stroke-linecap="round"/>
</svg>
